<svg width="222" height="62" viewBox="0 0 222 62" fill="none" xmlns="http://www.w3.org/2000/svg">
<path d="M15.191 60.9969C14.6199 60.9969 14.0627 60.9907 13.4962 60.9801C12.3225 60.9673 11.1516 60.8818 9.99306 60.7242C8.91276 60.5685 7.86625 60.2789 6.88803 59.8648C5.91878 59.4542 5.03474 58.9158 4.26979 58.2703C3.49377 57.6323 2.84769 56.8924 2.35717 56.0798C1.86124 55.2619 1.51803 54.3853 1.33949 53.4804C1.14668 52.5081 1.04236 51.5249 1.02744 50.5394C1.01556 50.2086 1 49.1071 1 49.1071V12.8729C1 12.8729 1.01657 11.7883 1.02753 11.4697C1.04182 10.4858 1.14553 9.50411 1.33777 8.5333C1.51664 7.62593 1.86011 6.74676 2.35631 5.92622C2.84503 5.11421 3.48752 4.37372 4.25887 3.73347C5.02935 3.08714 5.91621 2.54596 6.88711 2.12968C7.86308 1.71697 8.90762 1.42936 9.98573 1.27649C11.1481 1.11738 12.3231 1.03136 13.5008 1.01915L15.1919 1H207.799L209.51 1.01992C210.677 1.03153 211.842 1.11678 212.993 1.27495C214.082 1.42974 215.138 1.71936 216.125 2.13428C218.07 2.97321 219.653 4.30048 220.651 5.93005C221.139 6.74492 221.477 7.61692 221.654 8.51645C221.849 9.49523 221.957 10.4846 221.98 11.4766C221.985 11.9208 221.985 12.398 221.985 12.8729C222 13.4611 222 14.0209 222 14.5854V47.4129C222 47.9828 222 48.5388 221.985 49.0994C221.985 49.6095 221.985 50.0768 221.978 50.5577C221.956 51.5321 221.849 52.5038 221.658 53.465C221.483 54.3764 221.141 55.2599 220.646 56.0845C220.152 56.8882 219.509 57.6218 218.742 58.258C217.976 58.9071 217.091 59.4486 216.119 59.8619C215.135 60.2791 214.081 60.5698 212.993 60.7242C211.835 60.8826 210.664 60.9681 209.49 60.9801C208.941 60.9907 208.366 60.9969 207.808 60.9969L205.777 61L15.191 60.9969Z" fill="black"/>
<path d="M56.8766 31.4661C56.8932 30.1724 57.2359 28.9039 57.8729 27.7787C58.5099 26.6534 59.4205 25.708 60.5198 25.0304C59.8214 24.0304 58.9001 23.2074 57.829 22.6269C56.7579 22.0463 55.5665 21.7242 54.3495 21.686C51.7534 21.4128 49.2366 23.2435 47.9137 23.2435C46.5651 23.2435 44.5283 21.7131 42.3349 21.7584C40.9162 21.8043 39.5336 22.2179 38.3217 22.9589C37.1098 23.6999 36.1101 24.743 35.4198 25.9866C32.4299 31.1766 34.6601 38.8042 37.5242 42.9995C38.9572 45.0538 40.632 47.3485 42.8233 47.2671C44.9677 47.1779 45.7686 45.8962 48.3571 45.8962C50.9215 45.8962 51.6729 47.2671 53.9087 47.2154C56.2098 47.1779 57.6595 45.1519 59.0422 43.0782C60.0718 41.6144 60.8641 39.9967 61.3897 38.2848C60.0529 37.7179 58.912 36.7691 58.1095 35.5565C57.3069 34.3439 56.8781 32.9213 56.8766 31.4661Z" fill="white"/>
<path d="M52.6534 18.9271C53.9081 17.417 54.5262 15.4762 54.3765 13.5166C52.4597 13.7184 50.6891 14.6369 49.4176 16.089C48.7959 16.7984 48.3197 17.6237 48.0163 18.5176C47.7129 19.4116 47.5882 20.3568 47.6494 21.2992C48.6081 21.309 49.5566 21.1007 50.4234 20.6898C51.2902 20.2789 52.0527 19.6762 52.6534 18.9271Z" fill="white"/>
<path d="M83.9833 42.0669H76.6655L74.9081 47.2694H71.8086L78.7399 28.0215H81.9602L88.8915 47.2694H85.7391L83.9833 42.0669ZM77.4234 39.6662H83.224L80.3645 31.2229H80.2844L77.4234 39.6662Z" fill="white"/>
<path d="M103.861 40.2537C103.861 44.6146 101.533 47.4164 98.0198 47.4164C97.1298 47.4631 96.2447 47.2575 95.4659 46.8233C94.687 46.3891 94.0459 45.7438 93.6158 44.9612H93.5493V51.912H90.6763V33.2363H93.4573V35.5704H93.5101C93.9599 34.7916 94.6119 34.1496 95.3967 33.7127C96.1815 33.2759 97.0698 33.0605 97.9669 33.0895C101.519 33.0895 103.861 35.9049 103.861 40.2537ZM100.908 40.2537C100.908 37.4126 99.4435 35.5447 97.209 35.5447C95.0138 35.5447 93.5373 37.4519 93.5373 40.2537C93.5373 43.0813 95.0138 44.9749 97.209 44.9749C99.4435 44.9749 100.908 43.1206 100.908 40.2537Z" fill="white"/>
<path d="M119.266 40.2537C119.266 44.6146 116.938 47.4164 113.425 47.4164C112.535 47.4631 111.65 47.2575 110.871 46.8233C110.092 46.3891 109.451 45.7438 109.021 44.9612H108.955V51.912H106.082V33.2363H108.863V35.5704H108.915C109.365 34.7916 110.017 34.1496 110.802 33.7127C111.587 33.2759 112.475 33.0605 113.372 33.0895C116.925 33.0895 119.266 35.9049 119.266 40.2537ZM116.313 40.2537C116.313 37.4126 114.849 35.5447 112.614 35.5447C110.419 35.5447 108.943 37.4519 108.943 40.2537C108.943 43.0813 110.419 44.9749 112.614 44.9749C114.849 44.9749 116.313 43.1206 116.313 40.2537H116.313Z" fill="white"/>
<path d="M129.448 41.9061C129.661 43.8148 131.511 45.0681 134.038 45.0681C136.46 45.0681 138.202 43.8148 138.202 42.0937C138.202 40.5997 137.151 39.7052 134.663 39.0921L132.175 38.4912C128.65 37.6375 127.013 35.9845 127.013 33.3023C127.013 29.9813 129.9 27.7002 133.999 27.7002C138.055 27.7002 140.837 29.9813 140.93 33.3023H138.03C137.856 31.3814 136.272 30.222 133.958 30.222C131.644 30.222 130.06 31.3951 130.06 33.1025C130.06 34.4633 131.071 35.264 133.546 35.877L135.661 36.3977C139.6 37.3316 141.237 38.918 141.237 41.7334C141.237 45.3344 138.376 47.5898 133.825 47.5898C129.568 47.5898 126.693 45.3874 126.507 41.9059L129.448 41.9061Z" fill="white"/>
<path d="M147.437 29.915V33.236H150.099V35.5171H147.437V43.2535C147.437 44.4554 147.97 45.0154 149.14 45.0154C149.456 45.0099 149.771 44.9877 150.085 44.9488V47.2163C149.559 47.3148 149.024 47.3594 148.489 47.3495C145.655 47.3495 144.55 46.2823 144.55 43.5607V35.5171H142.515V33.236H144.55V29.915H147.437Z" fill="white"/>
<path d="M151.64 40.2534C151.64 35.838 154.234 33.0635 158.279 33.0635C162.337 33.0635 164.918 35.838 164.918 40.2534C164.918 44.6809 162.35 47.4434 158.279 47.4434C154.208 47.4434 151.64 44.6809 151.64 40.2534ZM161.991 40.2534C161.991 37.2246 160.607 35.4369 158.279 35.4369C155.95 35.4369 154.568 37.2382 154.568 40.2534C154.568 43.2944 155.95 45.0684 158.279 45.0684C160.607 45.0684 161.991 43.2944 161.991 40.2534H161.991Z" fill="white"/>
<path d="M167.287 33.2362H170.027V35.6248H170.094C170.279 34.8788 170.715 34.2195 171.328 33.7578C171.941 33.2961 172.694 33.06 173.461 33.0894C173.792 33.0882 174.122 33.1242 174.445 33.1968V35.8912C174.027 35.7631 173.591 35.7043 173.154 35.7171C172.737 35.7001 172.321 35.7739 171.934 35.9334C171.548 36.0929 171.201 36.3342 170.916 36.641C170.632 36.9477 170.417 37.3125 170.287 37.7103C170.156 38.1082 170.113 38.5296 170.16 38.9457V47.2694H167.287L167.287 33.2362Z" fill="white"/>
<path d="M187.692 43.1476C187.305 45.6951 184.831 47.4434 181.665 47.4434C177.593 47.4434 175.065 44.7081 175.065 40.32C175.065 35.9183 177.606 33.0635 181.544 33.0635C185.416 33.0635 187.852 35.7306 187.852 39.9855V40.9724H177.966V41.1465C177.92 41.6629 177.985 42.1832 178.155 42.6728C178.325 43.1623 178.597 43.6099 178.954 43.9859C179.31 44.3618 179.742 44.6575 180.22 44.8533C180.699 45.0491 181.214 45.1404 181.731 45.1214C182.41 45.1852 183.091 45.0275 183.674 44.6719C184.256 44.3162 184.708 43.7816 184.963 43.1475L187.692 43.1476ZM177.979 38.9592H184.977C185.003 38.4949 184.933 38.0301 184.771 37.5943C184.609 37.1584 184.359 36.7608 184.037 36.4263C183.714 36.0919 183.326 35.8279 182.897 35.6508C182.468 35.4738 182.008 35.3876 181.544 35.3976C181.076 35.3948 180.612 35.4849 180.179 35.6627C179.746 35.8406 179.353 36.1026 179.021 36.4338C178.69 36.7649 178.427 37.1586 178.248 37.592C178.07 38.0255 177.978 38.4902 177.979 38.9592V38.9592Z" fill="white"/>
<path d="M76.7973 17.4429H78.0308C78.2431 17.4695 78.4586 17.4516 78.6637 17.3904C78.8688 17.3293 79.0591 17.2262 79.2225 17.0877C79.3859 16.9492 79.5189 16.7783 79.6131 16.5857C79.7074 16.3931 79.7608 16.183 79.77 15.9686C79.77 15.1157 79.1299 14.5647 78.0444 14.5647C77.8268 14.5342 77.6054 14.5478 77.3932 14.6045C77.1809 14.6613 76.9822 14.7601 76.8086 14.8951C76.6351 15.0301 76.4903 15.1986 76.3829 15.3907C76.2754 15.5827 76.2074 15.7944 76.1828 16.0133H74.8285C74.8519 15.616 74.9565 15.2278 75.1359 14.8729C75.3153 14.5179 75.5657 14.2038 75.8715 13.95C76.1773 13.6963 76.5319 13.5084 76.9132 13.398C77.2946 13.2876 77.6945 13.2571 78.0881 13.3084C79.9043 13.3084 81.1832 14.3278 81.1832 15.7953C81.1875 16.2869 81.0234 16.7652 80.7184 17.1501C80.4134 17.5351 79.9859 17.8036 79.5073 17.9107V18.0197C80.0747 18.0449 80.609 18.2943 80.9935 18.7134C81.378 19.1325 81.5813 19.6871 81.5591 20.2561C81.5171 20.6651 81.3941 21.0617 81.1973 21.4224C81.0005 21.7832 80.7338 22.1009 80.4129 22.357C80.0921 22.6131 79.7234 22.8024 79.3286 22.9137C78.9338 23.0251 78.5208 23.0564 78.1138 23.0057C77.706 23.0614 77.2911 23.0343 76.8939 22.9259C76.4968 22.8174 76.1255 22.6299 75.8021 22.3745C75.4788 22.1191 75.21 21.8011 75.0119 21.4394C74.8138 21.0776 74.6903 20.6796 74.6489 20.269H76.0243C76.1074 21.1537 76.9181 21.7244 78.1138 21.7244C79.3095 21.7244 80.0901 21.0834 80.0901 20.1797C80.0901 19.2632 79.3548 18.6986 78.07 18.6986H76.7973V17.4429Z" fill="white"/>
<path d="M83.1216 20.8074C83.1216 19.5511 84.0561 18.8268 85.7108 18.7238L87.5965 18.6149V18.0124C87.5965 17.2753 87.1119 16.859 86.1713 16.859C85.4044 16.859 84.8744 17.1413 84.7204 17.6348H83.3903C83.5307 16.4359 84.657 15.667 86.2362 15.667C87.9815 15.667 88.9659 16.5381 88.9659 18.0124V22.7812H87.6418V21.8004H87.5331C87.3125 22.1522 87.0026 22.4391 86.6353 22.6316C86.2679 22.8241 85.8562 22.9154 85.4421 22.8962C85.1498 22.9267 84.8545 22.8955 84.575 22.8045C84.2956 22.7135 84.0382 22.5648 83.8196 22.368C83.601 22.1712 83.4259 21.9306 83.3057 21.6619C83.1854 21.3931 83.1227 21.102 83.1216 20.8074ZM87.5965 20.211V19.6275L85.8965 19.7365C84.9378 19.8008 84.5029 20.1278 84.5029 20.7431C84.5029 21.3712 85.0464 21.7368 85.7938 21.7368C86.0128 21.759 86.234 21.7369 86.4443 21.6716C86.6546 21.6064 86.8496 21.4994 87.0178 21.3571C87.186 21.2147 87.3239 21.0399 87.4233 20.843C87.5227 20.6461 87.5816 20.4312 87.5965 20.211Z" fill="white"/>
<path d="M92.6122 16.9612V22.7813H91.2383V15.8018H95.822V16.9612L92.6122 16.9612Z" fill="white"/>
<path d="M104.148 19.2888C104.148 21.5063 103.029 22.8966 101.272 22.8966C100.841 22.9262 100.41 22.8315 100.03 22.6238C99.6506 22.4161 99.3381 22.104 99.1296 21.7243H99.0209V25.102H97.647V15.802H98.9695V16.9555H99.0722C99.2845 16.5625 99.601 16.236 99.9868 16.012C100.373 15.788 100.813 15.6753 101.258 15.6863C103.029 15.6862 104.148 17.0705 104.148 19.2888ZM102.735 19.2888C102.735 17.8145 102.039 16.9237 100.875 16.9237C99.7185 16.9237 98.9952 17.8334 98.9952 19.2948C98.9952 20.7495 99.7184 21.6599 100.869 21.6599C102.039 21.6599 102.735 20.7691 102.735 19.2888Z" fill="white"/>
<path d="M105.978 25.2811V24.0952C106.127 24.1141 106.277 24.1227 106.427 24.1209C106.719 24.1426 107.01 24.0552 107.242 23.8755C107.474 23.6957 107.632 23.4362 107.686 23.1469L107.788 22.807L105.269 15.8018H106.765L108.51 21.3456H108.619L110.358 15.8018H111.815L109.22 23.0697C108.625 24.768 107.967 25.3129 106.547 25.3129C106.433 25.3129 106.107 25.3001 105.978 25.2811Z" fill="white"/>
<path d="M112.885 20.801H114.253C114.387 21.4164 114.963 21.7372 115.767 21.7372C116.682 21.7372 117.244 21.3331 117.244 20.7049C117.244 20.0321 116.74 19.7112 115.767 19.7112H114.726V18.641H115.749C116.58 18.641 117.002 18.3209 117.002 17.7374C117.002 17.225 116.593 16.8337 115.749 16.8337C114.981 16.8337 114.419 17.1607 114.33 17.7117H113.006C113.105 17.0785 113.448 16.5097 113.961 16.1274C114.474 15.7451 115.116 15.5799 115.749 15.6674C117.404 15.6674 118.351 16.4175 118.351 17.5966C118.358 17.925 118.253 18.246 118.053 18.5061C117.853 18.7662 117.57 18.9496 117.251 19.0255V19.1345C117.631 19.1836 117.979 19.3706 118.23 19.6601C118.481 19.9496 118.618 20.3214 118.613 20.7049C118.613 22.0317 117.487 22.9096 115.767 22.9096C114.247 22.9096 113.012 22.211 112.885 20.801Z" fill="white"/>
<path d="M120.591 22.7813V15.8018H121.953V20.6024H122.062L125.27 15.8018H126.632V22.7813H125.27V17.955H125.167L121.953 22.7813L120.591 22.7813Z" fill="white"/>
<path d="M134.134 16.9612H131.942V22.7812H130.566V16.9612H128.374V15.8018H134.134V16.9612Z" fill="white"/>
<path d="M141.535 20.8969C141.348 21.5347 140.943 22.0864 140.391 22.4554C139.84 22.8245 139.176 22.9876 138.517 22.9161C138.058 22.9282 137.603 22.8402 137.181 22.658C136.76 22.4758 136.383 22.2039 136.077 21.8611C135.771 21.5184 135.543 21.113 135.409 20.673C135.275 20.2331 135.238 19.7692 135.301 19.3135C135.24 18.8565 135.278 18.3916 135.411 17.9503C135.545 17.5091 135.772 17.1018 136.076 16.756C136.381 16.4103 136.755 16.1341 137.175 15.9462C137.596 15.7584 138.051 15.6632 138.511 15.6671C140.448 15.6671 141.618 16.9939 141.618 19.1856V19.6663H136.702V19.7435C136.68 19.9996 136.712 20.2576 136.796 20.5006C136.88 20.7437 137.013 20.9666 137.188 21.1549C137.362 21.3432 137.574 21.4928 137.81 21.5941C138.046 21.6953 138.3 21.7461 138.556 21.743C138.885 21.7823 139.217 21.7229 139.512 21.5722C139.807 21.4216 140.05 21.1865 140.211 20.8968L141.535 20.8969ZM136.702 18.6475H140.217C140.234 18.4134 140.203 18.1782 140.124 17.9571C140.045 17.736 139.921 17.5338 139.76 17.3635C139.599 17.1932 139.404 17.0587 139.188 16.9684C138.972 16.8782 138.739 16.8342 138.505 16.8395C138.267 16.8362 138.031 16.8808 137.811 16.9705C137.591 17.0602 137.391 17.1933 137.223 17.3619C137.055 17.5304 136.922 17.731 136.833 17.9519C136.743 18.1727 136.699 18.4092 136.702 18.6475H136.702Z" fill="white"/>
<path d="M147.359 15.8018H150.498C151.86 15.8018 152.659 16.4935 152.659 17.5765C152.661 17.9202 152.545 18.2541 152.331 18.5225C152.117 18.7909 151.817 18.9774 151.483 19.0508V19.1598C151.889 19.1856 152.27 19.3669 152.547 19.6663C152.824 19.9658 152.976 20.3604 152.971 20.7688C152.971 21.9866 152.058 22.7813 150.53 22.7813H147.359V15.8018ZM148.721 16.8591V18.6664H150.083C150.913 18.6664 151.31 18.3462 151.31 17.7559C151.31 17.2117 150.965 16.859 150.235 16.859L148.721 16.8591ZM148.721 19.679V21.724H150.35C151.163 21.724 151.597 21.3645 151.597 20.7046C151.597 20.006 151.105 19.6791 150.178 19.6791L148.721 19.679Z" fill="white"/>
</svg>
