<svg width="14" height="14" viewBox="0 0 14 14" fill="none" xmlns="http://www.w3.org/2000/svg">
<path d="M14 4.62109C14 3.70754 14 3.06843 14 3.00781C14 2.32933 13.448 1.77734 12.7695 1.77734H12.6055V3.28125C12.6055 3.50777 12.4218 3.69141 12.1953 3.69141C11.9688 3.69141 11.7852 3.50777 11.7852 3.28125C11.7852 2.82081 11.7852 1.55225 11.7852 1.09375C11.7852 0.867234 11.6015 0.683594 11.375 0.683594C11.1485 0.683594 10.9648 0.867234 10.9648 1.09375V1.77734H8.23047V3.28125C8.23047 3.50777 8.04683 3.69141 7.82031 3.69141C7.5938 3.69141 7.41016 3.50777 7.41016 3.28125C7.41016 2.82081 7.41016 1.55225 7.41016 1.09375C7.41016 0.867234 7.22652 0.683594 7 0.683594C6.77348 0.683594 6.58984 0.867234 6.58984 1.09375V1.77734H3.85547V3.28125C3.85547 3.50777 3.67183 3.69141 3.44531 3.69141C3.2188 3.69141 3.03516 3.50777 3.03516 3.28125C3.03516 2.82081 3.03516 1.55225 3.03516 1.09375C3.03516 0.867234 2.85152 0.683594 2.625 0.683594C2.39848 0.683594 2.21484 0.867234 2.21484 1.09375V1.77734H1.23047C0.551988 1.77734 0 2.32933 0 3.00781V4.62109H14Z" fill="#BFBFBF"/>
<path d="M0 5.44141V12.0859C0 12.7644 0.551988 13.3164 1.23047 13.3164H12.7695C13.448 13.3164 14 12.7644 14 12.0859C14 11.9103 14 8.07155 14 5.44141C13.7447 5.44141 0.141203 5.44141 0 5.44141ZM3.9375 11.1289H3.0625C2.83598 11.1289 2.65234 10.9453 2.65234 10.7188C2.65234 10.4922 2.83598 10.3086 3.0625 10.3086H3.9375C4.16402 10.3086 4.34766 10.4922 4.34766 10.7188C4.34766 10.9453 4.16402 11.1289 3.9375 11.1289ZM3.9375 9.37891H3.0625C2.83598 9.37891 2.65234 9.19527 2.65234 8.96875C2.65234 8.74223 2.83598 8.55859 3.0625 8.55859H3.9375C4.16402 8.55859 4.34766 8.74223 4.34766 8.96875C4.34766 9.19527 4.16402 9.37891 3.9375 9.37891ZM3.9375 7.62891H3.0625C2.83598 7.62891 2.65234 7.44527 2.65234 7.21875C2.65234 6.99223 2.83598 6.80859 3.0625 6.80859H3.9375C4.16402 6.80859 4.34766 6.99223 4.34766 7.21875C4.34766 7.44527 4.16402 7.62891 3.9375 7.62891ZM7.4375 11.1289H6.5625C6.33598 11.1289 6.15234 10.9453 6.15234 10.7188C6.15234 10.4922 6.33598 10.3086 6.5625 10.3086H7.4375C7.66402 10.3086 7.84766 10.4922 7.84766 10.7188C7.84766 10.9453 7.66402 11.1289 7.4375 11.1289ZM7.4375 9.37891H6.5625C6.33598 9.37891 6.15234 9.19527 6.15234 8.96875C6.15234 8.74223 6.33598 8.55859 6.5625 8.55859H7.4375C7.66402 8.55859 7.84766 8.74223 7.84766 8.96875C7.84766 9.19527 7.66402 9.37891 7.4375 9.37891ZM7.4375 7.62891H6.5625C6.33598 7.62891 6.15234 7.44527 6.15234 7.21875C6.15234 6.99223 6.33598 6.80859 6.5625 6.80859H7.4375C7.66402 6.80859 7.84766 6.99223 7.84766 7.21875C7.84766 7.44527 7.66402 7.62891 7.4375 7.62891ZM10.9375 11.1289H10.0625C9.83598 11.1289 9.65234 10.9453 9.65234 10.7188C9.65234 10.4922 9.83598 10.3086 10.0625 10.3086H10.9375C11.164 10.3086 11.3477 10.4922 11.3477 10.7188C11.3477 10.9453 11.164 11.1289 10.9375 11.1289ZM10.9375 9.37891H10.0625C9.83598 9.37891 9.65234 9.19527 9.65234 8.96875C9.65234 8.74223 9.83598 8.55859 10.0625 8.55859H10.9375C11.164 8.55859 11.3477 8.74223 11.3477 8.96875C11.3477 9.19527 11.164 9.37891 10.9375 9.37891ZM10.9375 7.62891H10.0625C9.83598 7.62891 9.65234 7.44527 9.65234 7.21875C9.65234 6.99223 9.83598 6.80859 10.0625 6.80859H10.9375C11.164 6.80859 11.3477 6.99223 11.3477 7.21875C11.3477 7.44527 11.164 7.62891 10.9375 7.62891Z" fill="#BFBFBF"/>
</svg>
