<svg width="27" height="27" viewBox="0 0 27 27" fill="none" xmlns="http://www.w3.org/2000/svg">
<path d="M26.1562 22.7812H14.3438C13.878 22.7812 13.5 22.4032 13.5 21.9375C13.5 21.4718 13.5 5.52825 13.5 5.0625C13.5 4.59675 13.878 4.21875 14.3438 4.21875H26.1562C26.622 4.21875 27 4.59675 27 5.0625V21.9375C27 22.4032 26.622 22.7812 26.1562 22.7812Z" fill="#ECEFF1"/>
<path d="M17.7188 9.28125H14.3438C13.878 9.28125 13.5 8.90325 13.5 8.4375C13.5 7.97175 13.878 7.59375 14.3438 7.59375H17.7188C18.1845 7.59375 18.5625 7.97175 18.5625 8.4375C18.5625 8.90325 18.1845 9.28125 17.7188 9.28125Z" fill="#388E3C"/>
<path d="M17.7188 12.6562H14.3438C13.878 12.6562 13.5 12.2782 13.5 11.8125C13.5 11.3468 13.878 10.9688 14.3438 10.9688H17.7188C18.1845 10.9688 18.5625 11.3468 18.5625 11.8125C18.5625 12.2782 18.1845 12.6562 17.7188 12.6562Z" fill="#388E3C"/>
<path d="M17.7188 16.0312H14.3438C13.878 16.0312 13.5 15.6532 13.5 15.1875C13.5 14.7218 13.878 14.3438 14.3438 14.3438H17.7188C18.1845 14.3438 18.5625 14.7218 18.5625 15.1875C18.5625 15.6532 18.1845 16.0312 17.7188 16.0312Z" fill="#388E3C"/>
<path d="M17.7188 19.4062H14.3438C13.878 19.4062 13.5 19.0282 13.5 18.5625C13.5 18.0968 13.878 17.7188 14.3438 17.7188H17.7188C18.1845 17.7188 18.5625 18.0968 18.5625 18.5625C18.5625 19.0282 18.1845 19.4062 17.7188 19.4062Z" fill="#388E3C"/>
<path d="M22.7812 9.28125H21.0938C20.628 9.28125 20.25 8.90325 20.25 8.4375C20.25 7.97175 20.628 7.59375 21.0938 7.59375H22.7812C23.247 7.59375 23.625 7.97175 23.625 8.4375C23.625 8.90325 23.247 9.28125 22.7812 9.28125Z" fill="#388E3C"/>
<path d="M22.7812 12.6562H21.0938C20.628 12.6562 20.25 12.2782 20.25 11.8125C20.25 11.3468 20.628 10.9688 21.0938 10.9688H22.7812C23.247 10.9688 23.625 11.3468 23.625 11.8125C23.625 12.2782 23.247 12.6562 22.7812 12.6562Z" fill="#388E3C"/>
<path d="M22.7812 16.0312H21.0938C20.628 16.0312 20.25 15.6532 20.25 15.1875C20.25 14.7218 20.628 14.3438 21.0938 14.3438H22.7812C23.247 14.3438 23.625 14.7218 23.625 15.1875C23.625 15.6532 23.247 16.0312 22.7812 16.0312Z" fill="#388E3C"/>
<path d="M22.7812 19.4062H21.0938C20.628 19.4062 20.25 19.0282 20.25 18.5625C20.25 18.0968 20.628 17.7188 21.0938 17.7188H22.7812C23.247 17.7188 23.625 18.0968 23.625 18.5625C23.625 19.0282 23.247 19.4062 22.7812 19.4062Z" fill="#388E3C"/>
<path d="M14.8821 1.03895C14.6897 0.878637 14.4315 0.809449 14.1885 0.860074L0.6885 3.39132C0.288562 3.46557 0 3.8132 0 4.21989V22.7824C0 23.1874 0.288562 23.5367 0.6885 23.6109L14.1885 26.1422C14.2391 26.1523 14.2914 26.1574 14.3438 26.1574C14.5395 26.1574 14.7302 26.0899 14.8821 25.9633C15.0761 25.803 15.1875 25.5634 15.1875 25.3136V1.68864C15.1875 1.4372 15.0761 1.19926 14.8821 1.03895Z" fill="#2E7D32"/>
<path d="M11.6027 16.3209L8.93472 13.2716L11.633 9.80213C11.9199 9.43426 11.8524 8.90438 11.4862 8.61751C11.12 8.33063 10.5902 8.39813 10.3016 8.76432L7.8024 11.9773L5.6964 9.57095C5.38759 9.21657 4.85434 9.18451 4.50672 9.49163C4.15572 9.79876 4.12028 10.332 4.4274 10.6813L6.74772 13.3341L4.39534 16.3581C4.10847 16.7259 4.17597 17.2558 4.54215 17.5427C4.6974 17.6625 4.88134 17.7199 5.0619 17.7199C5.31334 17.7199 5.5614 17.6085 5.72847 17.3942L7.88003 14.6267L10.3337 17.4296C10.5007 17.622 10.7336 17.7199 10.9682 17.7199C11.1656 17.7199 11.363 17.6507 11.5233 17.5106C11.8743 17.2035 11.9098 16.6703 11.6027 16.3209Z" fill="#FAFAFA"/>
</svg>
