<svg width="221" height="62" viewBox="0 0 221 62" fill="none" xmlns="http://www.w3.org/2000/svg">
<path d="M212.815 0H8.18519C3.66463 0 0 3.46979 0 7.75V54.25C0 58.5302 3.66463 62 8.18519 62H212.815C217.335 62 221 58.5302 221 54.25V7.75C221 3.46979 217.335 0 212.815 0Z" fill="black"/>
<path d="M110.456 32.5899C109.161 32.593 107.897 32.9976 106.822 33.7523C105.747 34.5071 104.91 35.5781 104.418 36.83C103.925 38.0819 103.798 39.4584 104.054 40.7855C104.31 42.1126 104.936 43.3307 105.853 44.2857C106.771 45.2407 107.939 45.8897 109.21 46.1507C110.48 46.4116 111.796 46.2729 112.991 45.7519C114.186 45.2309 115.207 44.3511 115.923 43.2238C116.64 42.0964 117.021 40.7721 117.018 39.4184C117.031 38.5153 116.869 37.6188 116.543 36.7823C116.218 35.9458 115.734 35.1864 115.122 34.5493C114.51 33.9121 113.781 33.4103 112.98 33.0737C112.178 32.7371 111.32 32.5725 110.456 32.5899ZM110.456 43.5637C109.663 43.6218 108.871 43.4288 108.183 43.01C107.496 42.5912 106.945 41.9659 106.602 41.2154C106.259 40.4649 106.14 39.6239 106.26 38.8017C106.381 37.9795 106.735 37.2141 107.277 36.6051C107.819 35.9961 108.523 35.5716 109.299 35.3868C110.074 35.202 110.885 35.2654 111.626 35.5689C112.367 35.8723 113.003 36.4017 113.452 37.0882C113.901 37.7747 114.142 38.5866 114.144 39.4184C114.169 39.9454 114.093 40.4723 113.92 40.968C113.747 41.4636 113.48 41.918 113.137 42.3043C112.793 42.6907 112.379 43.0012 111.918 43.2175C111.458 43.4338 110.961 43.5515 110.456 43.5637ZM96.1339 32.5899C94.8392 32.593 93.5744 32.9976 92.4995 33.7523C91.4247 34.5071 90.588 35.5781 90.0953 36.83C89.6026 38.0819 89.4761 39.4584 89.7317 40.7855C89.9872 42.1126 90.6135 43.3307 91.5312 44.2857C92.4488 45.2407 93.6168 45.8897 94.8872 46.1507C96.1577 46.4116 97.4737 46.2729 98.6687 45.7519C99.8638 45.2309 100.884 44.3511 101.601 43.2238C102.318 42.0964 102.699 40.7721 102.696 39.4184C102.708 38.5153 102.547 37.6188 102.221 36.7823C101.895 35.9458 101.412 35.1864 100.8 34.5493C100.188 33.9121 99.459 33.4103 98.6574 33.0737C97.8558 32.7371 96.9976 32.5725 96.1339 32.5899ZM96.1339 43.5637C95.3403 43.6218 94.5484 43.4288 93.8611 43.01C93.1737 42.5912 92.6228 41.9659 92.2799 41.2154C91.9369 40.4649 91.8179 39.6239 91.9382 38.8017C92.0585 37.9795 92.4126 37.2141 92.9544 36.6051C93.4962 35.9961 94.2008 35.5716 94.9764 35.3868C95.7521 35.202 96.563 35.2654 97.3037 35.5689C98.0444 35.8723 98.6807 36.4017 99.1298 37.0882C99.5789 37.7747 99.8201 38.5866 99.8221 39.4184C99.8468 39.9454 99.7704 40.4723 99.5973 40.968C99.4242 41.4636 99.1579 41.918 98.8142 42.3043C98.4705 42.6907 98.0562 43.0012 97.5959 43.2175C97.1356 43.4338 96.6385 43.5515 96.1339 43.5637ZM79.107 34.6947V37.5868H85.7457C85.6416 38.9489 85.1 40.2343 84.2089 41.234C83.543 41.9434 82.742 42.4987 81.8579 42.864C80.9738 43.2294 80.0261 43.3966 79.0763 43.3549C77.1199 43.3549 75.2437 42.5423 73.8604 41.096C72.4771 39.6497 71.7 37.688 71.7 35.6426C71.7 33.5972 72.4771 31.6356 73.8604 30.1893C75.2437 28.7429 77.1199 27.9304 79.0763 27.9304C80.9518 27.9012 82.7627 28.6459 84.1167 30.0031L86.0684 27.9625C85.1525 27.0154 84.065 26.2689 82.8696 25.7667C81.6742 25.2646 80.3951 25.017 79.107 25.0383C77.7408 24.9827 76.378 25.2161 75.1002 25.7243C73.8223 26.2326 72.6558 27.0054 71.6704 27.9963C70.685 28.9872 69.9011 30.1759 69.3657 31.4912C68.8302 32.8065 68.5542 34.2212 68.5542 35.6507C68.5542 37.0801 68.8302 38.4949 69.3657 39.8101C69.9011 41.1254 70.685 42.3141 71.6704 43.305C72.6558 44.296 73.8223 45.0687 75.1002 45.577C76.378 46.0853 77.7408 46.3186 79.107 46.263C80.4215 46.3179 81.7323 46.0814 82.9533 45.5692C84.1742 45.0569 85.2777 44.2804 86.1913 43.2906C87.8051 41.4371 88.6649 38.9993 88.5886 36.4942C88.5941 35.8912 88.5478 35.289 88.4503 34.6947H79.107ZM148.736 36.9441C148.335 35.7113 147.586 34.6349 146.587 33.8573C145.588 33.0798 144.387 32.6378 143.142 32.5899C142.302 32.5881 141.47 32.7667 140.698 33.1145C139.926 33.4623 139.23 33.972 138.654 34.612C138.078 35.252 137.634 36.0087 137.348 36.8354C137.063 37.6621 136.943 38.5412 136.996 39.4184C136.982 40.8851 137.423 42.3169 138.253 43.4999C139.082 44.6829 140.255 45.5536 141.597 45.9821C142.939 46.4105 144.377 46.3736 145.697 45.8769C147.017 45.3802 148.148 44.4504 148.921 43.2263L146.692 41.6196C146.36 42.1985 145.889 42.6765 145.326 43.0062C144.762 43.336 144.126 43.506 143.481 43.4995C142.814 43.5282 142.156 43.3456 141.591 42.9757C141.026 42.6058 140.581 42.0659 140.315 41.4268L149.059 37.651L148.736 36.9441ZM139.823 39.2256C139.792 38.7265 139.856 38.226 140.013 37.7532C140.169 37.2805 140.414 36.8451 140.733 36.4725C141.052 36.1 141.439 35.7977 141.871 35.5835C142.303 35.3692 142.772 35.2473 143.25 35.2249C143.745 35.1933 144.238 35.3152 144.667 35.5752C145.097 35.8353 145.443 36.2221 145.663 36.687L139.823 39.2256ZM132.723 45.8453H135.597V25.7613H132.723V45.8453ZM128.021 34.1162H127.913C127.484 33.6051 126.954 33.1969 126.36 32.9196C125.766 32.6423 125.122 32.5024 124.471 32.5095C122.792 32.5947 121.208 33.3521 120.048 34.6249C118.889 35.8977 118.242 37.5882 118.242 39.3461C118.242 41.104 118.889 42.7945 120.048 44.0673C121.208 45.3401 122.792 46.0975 124.471 46.1827C125.123 46.1963 125.769 46.0594 126.364 45.7817C126.959 45.5039 127.488 45.0922 127.913 44.576H128.021V45.5561C128.021 48.175 126.684 49.5728 124.533 49.5728C123.814 49.5563 123.116 49.3169 122.528 48.8849C121.94 48.4529 121.487 47.8479 121.229 47.1467L118.739 48.2232C119.199 49.4318 120 50.466 121.034 51.1889C122.069 51.9119 123.289 52.2896 124.533 52.2721C127.898 52.2721 130.68 50.1995 130.68 45.1544V32.9915H128.021V34.1162ZM124.717 43.5637C123.71 43.4981 122.765 43.0336 122.074 42.265C121.384 41.4963 120.999 40.4812 120.999 39.4264C120.999 38.3717 121.384 37.3566 122.074 36.5879C122.765 35.8192 123.71 35.3548 124.717 35.2891C125.209 35.3114 125.692 35.4368 126.137 35.6581C126.582 35.8794 126.979 36.192 127.306 36.5772C127.633 36.9625 127.882 37.4125 128.04 37.9006C128.197 38.3887 128.258 38.9049 128.221 39.4184C128.263 39.9337 128.204 40.4525 128.049 40.9434C127.894 41.4344 127.645 41.8873 127.317 42.2748C126.99 42.6623 126.59 42.9763 126.143 43.1979C125.697 43.4194 125.211 43.5439 124.717 43.5637ZM162.198 25.7613H155.313V45.8453H158.187V38.2294H162.198C163.017 38.291 163.839 38.1754 164.614 37.89C165.388 37.6046 166.098 37.1554 166.699 36.5705C167.3 35.9856 167.779 35.2775 168.107 34.4903C168.435 33.7032 168.604 32.8539 168.604 31.9954C168.604 31.1369 168.435 30.2876 168.107 29.5004C167.779 28.7133 167.3 28.0052 166.699 27.4203C166.098 26.8354 165.388 26.3862 164.614 26.1008C163.839 25.8154 163.017 25.6998 162.198 25.7613ZM162.198 35.4016H158.187V28.557H162.259C162.691 28.557 163.119 28.6459 163.518 28.8187C163.917 28.9915 164.279 29.2448 164.585 29.5641C164.89 29.8834 165.132 30.2624 165.298 30.6796C165.463 31.0967 165.548 31.5438 165.548 31.9954C165.548 32.4469 165.463 32.894 165.298 33.3112C165.132 33.7284 164.89 34.1074 164.585 34.4267C164.279 34.746 163.917 34.9992 163.518 35.172C163.119 35.3448 162.691 35.4338 162.259 35.4338L162.198 35.4016ZM179.932 32.5256C178.885 32.4581 177.843 32.7129 176.933 33.2583C176.024 33.8037 175.287 34.6159 174.814 35.5944L177.35 36.7031C177.606 36.2201 177.991 35.825 178.457 35.5655C178.923 35.3061 179.452 35.1933 179.978 35.2409C180.343 35.1964 180.712 35.2283 181.065 35.3347C181.418 35.4411 181.747 35.6199 182.033 35.8607C182.319 36.1015 182.557 36.3994 182.731 36.7372C182.906 37.0749 183.015 37.4456 183.051 37.8278V38.0206C182.127 37.5127 181.099 37.248 180.055 37.2493C177.319 37.2493 174.522 38.8561 174.522 41.7803C174.549 42.4018 174.696 43.0113 174.952 43.5726C175.209 44.1339 175.571 44.6356 176.017 45.0477C176.463 45.4599 176.983 45.7741 177.548 45.9719C178.112 46.1696 178.708 46.2467 179.302 46.1987C180.023 46.2404 180.742 46.0809 181.384 45.7364C182.027 45.392 182.57 44.875 182.959 44.2385H183.051V45.8453H185.817V38.117C185.817 34.5983 183.266 32.5577 179.993 32.5577L179.932 32.5256ZM179.578 43.5316C178.641 43.5316 177.335 43.0335 177.335 41.8285C177.335 40.2218 178.964 39.6755 180.408 39.6755C181.321 39.6519 182.223 39.885 183.021 40.3503C182.924 41.2229 182.528 42.0293 181.907 42.6201C181.285 43.211 180.48 43.5462 179.64 43.5637L179.578 43.5316ZM195.898 32.9915L192.61 41.6999H192.518L189.106 32.9915H186.033L191.15 45.1704L188.23 51.9347H191.227L199.095 32.9915H195.898ZM170.081 45.8453H172.94V25.7613H170.081V45.8453Z" fill="white"/>
<path d="M21.7522 11.0496C21.2296 11.6628 20.9629 12.451 21.0068 13.2529V48.0648C20.9529 48.868 21.2208 49.6599 21.7522 50.2681L21.8632 50.394L41.5135 30.8949V30.4228L21.8632 10.9395L21.7522 11.0496Z" fill="url(#paint0_linear)"/>
<path d="M47.1074 38.6973L41.0811 31.4455V30.9188L47.1074 23.667L47.2397 23.7723L54.4566 28.6537C56.5144 30.0408 56.5144 32.3235 54.4566 33.7282L47.2691 38.6095L47.1074 38.6973Z" fill="url(#paint1_linear)"/>
<path d="M47.2567 38.1355L40.8873 31.667L22.0811 50.7659C22.5076 51.1514 23.0535 51.3732 23.6241 51.3928C24.1948 51.4124 24.7542 51.2286 25.2054 50.8732L47.2567 38.1355Z" fill="url(#paint2_linear)"/>
<path d="M47.1083 24.5203L25.0569 10.5837C24.6087 10.189 24.0497 9.98271 23.4783 10.0011C22.9068 10.0196 22.3595 10.2615 21.9326 10.6845L40.7389 31.6061L47.1083 24.5203Z" fill="url(#paint3_linear)"/>
<path opacity="0.2" d="M46.9272 38.1816L25.0569 50.6029C24.6222 50.9302 24.0923 51.1073 23.5476 51.1073C23.0029 51.1073 22.473 50.9302 22.0383 50.6029L21.9326 50.7083L22.0383 50.8288C22.473 51.1561 23.0029 51.3332 23.5476 51.3332C24.0923 51.3332 24.6222 51.1561 25.0569 50.8288L47.1083 38.3171L46.9272 38.1816Z" fill="black"/>
<path opacity="0.12" d="M21.7616 50.1398C21.2128 49.4186 20.9438 48.5015 21.0098 47.5762V47.8489C20.9517 48.7769 21.2403 49.6917 21.8128 50.3944L21.9324 50.2671L21.7616 50.1398Z" fill="black"/>
<path opacity="0.12" d="M54.8012 33.6322L47.1079 38.042L47.2464 38.1822L54.8012 33.8503C55.2472 33.6593 55.6341 33.3501 55.9211 32.9553C56.2081 32.5604 56.3847 32.0944 56.4322 31.6064C56.336 32.0499 56.1383 32.4642 55.855 32.8161C55.5717 33.1679 55.2108 33.4475 54.8012 33.6322Z" fill="black"/>
<path opacity="0.25" d="M24.8977 10.807L54.8058 29.422C55.2142 29.6211 55.5742 29.9225 55.8568 30.3019C56.1393 30.6812 56.3365 31.128 56.4324 31.6061C56.385 31.0799 56.2089 30.5776 55.9226 30.1518C55.6364 29.726 55.2506 29.3927 54.8058 29.1868L24.8977 10.5718C22.7647 9.22773 21 10.3366 21 13.0247V13.2767C21.046 10.5886 22.7647 9.47974 24.8977 10.807Z" fill="white"/>
<path d="M70.617 21.2727H69.4863V18.1716H70.4466C70.8787 17.702 71.2036 17.144 71.3989 16.5362C71.5941 15.9284 71.655 15.2854 71.5773 14.6517V10H77.7729V18.1561H78.8107V21.2572H77.6645V19.3035H70.617V21.2727ZM72.77 14.6517C72.8391 15.8973 72.5314 17.1348 71.8871 18.2026H76.5338V11.1474H72.77V14.6517Z" fill="white" stroke="white" stroke-width="0.2" stroke-miterlimit="10"/>
<path d="M87.7212 18.0274C87.2862 18.4605 86.7694 18.8042 86.2004 19.0387C85.6315 19.2732 85.0215 19.3939 84.4055 19.3939C83.7895 19.3939 83.1795 19.2732 82.6105 19.0387C82.0416 18.8042 81.5248 18.4605 81.0898 18.0274C80.2256 17.131 79.7432 15.9379 79.7432 14.697C79.7432 13.456 80.2256 12.2629 81.0898 11.3666C81.5248 10.9334 82.0416 10.5897 82.6105 10.3552C83.1795 10.1207 83.7895 10 84.4055 10C85.0215 10 85.6315 10.1207 86.2004 10.3552C86.7694 10.5897 87.2862 10.9334 87.7212 11.3666C88.1576 11.8046 88.5013 12.3249 88.7322 12.8969C88.9631 13.4688 89.0765 14.0809 89.0656 14.697C89.0835 15.314 88.9733 15.928 88.742 16.501C88.5108 17.0739 88.1633 17.5935 87.7212 18.0274ZM81.9357 17.2773C82.254 17.6056 82.6367 17.8655 83.0603 18.041C83.4838 18.2164 83.9391 18.3037 84.3979 18.2974C84.8572 18.3064 85.3133 18.2204 85.7372 18.0448C86.1611 17.8691 86.5436 17.6078 86.8602 17.2773C87.512 16.5739 87.8738 15.6529 87.8738 14.697C87.8738 13.7411 87.512 12.8201 86.8602 12.1167C86.5436 11.7862 86.1611 11.5248 85.7372 11.3492C85.3133 11.1735 84.8572 11.0875 84.3979 11.0965C83.9391 11.0902 83.4838 11.1775 83.0603 11.353C82.6367 11.5284 82.254 11.7884 81.9357 12.1167C81.2935 12.8248 80.9381 13.744 80.9381 14.697C80.9381 15.65 81.2935 16.5692 81.9357 17.2773Z" fill="white" stroke="white" stroke-width="0.2" stroke-miterlimit="10"/>
<path d="M95.2785 19.3933C94.5849 19.4028 93.8962 19.2894 93.254 19.06C92.6117 18.8305 92.0291 18.4897 91.5413 18.0581C90.5521 17.1534 90 15.9496 90 14.6976C90 13.4455 90.5521 12.2417 91.5413 11.3371C92.0371 10.898 92.6308 10.5529 93.2856 10.3232C93.9403 10.0935 94.642 9.98412 95.3471 10.0019C96.0648 9.98409 96.7776 10.11 97.4312 10.37C98.0849 10.63 98.662 11.0172 99.1186 11.5021L98.21 12.2822C97.8732 11.9033 97.4374 11.6006 96.9393 11.3996C96.4411 11.1986 95.8951 11.1051 95.3471 11.127C94.8194 11.1152 94.2946 11.1984 93.8051 11.3713C93.3156 11.5442 92.8718 11.8031 92.5013 12.1322C91.7629 12.8421 91.3536 13.7676 91.3536 14.7276C91.3536 15.6876 91.7629 16.613 92.5013 17.323C92.8718 17.652 93.3156 17.911 93.8051 18.0839C94.2946 18.2568 94.8194 18.3399 95.3471 18.3281C95.9362 18.3135 96.5144 18.1864 97.0415 17.9558C97.5686 17.7251 98.0318 17.3965 98.3986 16.9929L99.3243 17.788C98.8547 18.2805 98.2702 18.6795 97.61 18.9582C96.8807 19.2564 96.0834 19.4052 95.2785 19.3933Z" fill="white" stroke="white" stroke-width="0.2" stroke-miterlimit="10"/>
<path d="M104.138 19.3939H102.918V11.1586H100.257V10H106.784V11.1586H104.138V19.3939Z" fill="white" stroke="white" stroke-width="0.2" stroke-miterlimit="10"/>
<path d="M114.243 10L110.686 17.7539C110.6 18.0648 110.445 18.3536 110.233 18.6004C110.022 18.8471 109.758 19.0459 109.459 19.1829C109.161 19.3199 108.836 19.3919 108.507 19.3939C108.177 19.3959 107.851 19.3278 107.552 19.1944L107.865 18.1064C108.057 18.2117 108.272 18.2696 108.492 18.2749C108.724 18.2863 108.954 18.2274 109.15 18.1064C109.34 17.9515 109.486 17.7508 109.573 17.5241L109.918 16.7885L106.784 10H108.21L110.529 15.2714L112.817 10H114.243Z" fill="white" stroke="white" stroke-width="0.2" stroke-miterlimit="10"/>
<path d="M115.175 19.3939V10H122.635V19.3939H121.311V11.1586H116.499V19.3939H115.175Z" fill="white" stroke="white" stroke-width="0.2" stroke-miterlimit="10"/>
<path d="M125.432 19.3939V10H126.537V14.0237H130.84V10H131.959V19.3939H130.84V15.151H126.537V19.3939H125.432Z" fill="white" stroke="white" stroke-width="0.2" stroke-miterlimit="10"/>
<path d="M140.894 18.0263C140.458 18.4598 139.939 18.8038 139.368 19.0385C138.797 19.2732 138.185 19.3939 137.567 19.3939C136.949 19.3939 136.337 19.2732 135.766 19.0385C135.195 18.8038 134.677 18.4598 134.24 18.0263C133.375 17.13 132.892 15.9371 132.892 14.6963C132.892 13.4555 133.375 12.2626 134.24 11.3664C134.675 10.9333 135.193 10.5896 135.762 10.3552C136.332 10.1207 136.943 10 137.56 10C138.176 10 138.787 10.1207 139.357 10.3552C139.926 10.5896 140.444 10.9333 140.879 11.3664C141.738 12.2661 142.216 13.4577 142.216 14.6963C142.216 15.935 141.738 17.1266 140.879 18.0263H140.894ZM135.102 17.2763C135.419 17.6067 135.802 17.8681 136.226 18.0437C136.651 18.2193 137.107 18.3053 137.567 18.2963C138.027 18.3026 138.482 18.2153 138.906 18.0399C139.33 17.8644 139.714 17.6045 140.032 17.2763C140.675 16.5683 141.031 15.6492 141.031 14.6963C141.031 13.7435 140.675 12.8244 140.032 12.1164C139.714 11.7881 139.33 11.5282 138.906 11.3528C138.482 11.1773 138.027 11.0901 137.567 11.0964C137.107 11.0874 136.651 11.1734 136.226 11.349C135.802 11.5246 135.419 11.7859 135.102 12.1164C134.449 12.8197 134.087 13.7405 134.087 14.6963C134.087 15.6521 134.449 16.573 135.102 17.2763Z" fill="white" stroke="white" stroke-width="0.2" stroke-miterlimit="10"/>
<path d="M146.878 19.3939V10.0001H150.324C151.039 9.99307 151.73 10.25 152.262 10.7203C152.527 10.9474 152.738 11.2291 152.881 11.5457C153.024 11.8622 153.094 12.2058 153.087 12.5521C153.091 12.9739 152.97 13.3875 152.738 13.742C152.503 14.0782 152.179 14.3437 151.801 14.5092C152.259 14.6637 152.662 14.9466 152.96 15.3233C153.252 15.707 153.408 16.1745 153.405 16.6541C153.413 17.015 153.34 17.3733 153.192 17.7034C153.044 18.0335 152.824 18.3274 152.547 18.5642C151.996 19.0698 151.268 19.3448 150.515 19.3313L146.878 19.3939ZM148.101 14.0238H150.324C150.532 14.0357 150.74 14.001 150.933 13.9224C151.125 13.8437 151.297 13.7232 151.436 13.5698C151.705 13.3096 151.859 12.9551 151.865 12.5834C151.88 12.2106 151.749 11.8463 151.499 11.5658C151.366 11.4198 151.201 11.3047 151.017 11.2289C150.833 11.1531 150.635 11.1185 150.435 11.1274H148.149L148.101 14.0238ZM148.101 18.2354H150.578C150.793 18.2425 151.007 18.2027 151.205 18.1188C151.403 18.0349 151.579 17.909 151.722 17.75C151.996 17.4613 152.149 17.0809 152.15 16.6854C152.141 16.2932 151.982 15.9188 151.706 15.6364C151.553 15.4779 151.368 15.3529 151.162 15.2693C150.957 15.1857 150.737 15.1454 150.515 15.1511H148.101V18.2354Z" fill="white" stroke="white" stroke-width="0.2" stroke-miterlimit="10"/>
<defs>
<linearGradient id="paint0_linear" x1="39.7689" y1="12.8909" x2="13.3618" y2="39.5028" gradientUnits="userSpaceOnUse">
<stop stop-color="#00A0FF"/>
<stop offset="0.01" stop-color="#00A1FF"/>
<stop offset="0.26" stop-color="#00BEFF"/>
<stop offset="0.51" stop-color="#00D2FF"/>
<stop offset="0.76" stop-color="#00DFFF"/>
<stop offset="1" stop-color="#00E3FF"/>
</linearGradient>
<linearGradient id="paint1_linear" x1="57.1465" y1="31.1821" x2="21.5909" y2="31.1821" gradientUnits="userSpaceOnUse">
<stop stop-color="#FFE000"/>
<stop offset="0.41" stop-color="#FFBD00"/>
<stop offset="0.78" stop-color="#FFA500"/>
<stop offset="1" stop-color="#FF9C00"/>
</linearGradient>
<linearGradient id="paint2_linear" x1="43.8004" y1="35.1925" x2="8.91782" y2="69.5255" gradientUnits="userSpaceOnUse">
<stop stop-color="#FF3A44"/>
<stop offset="1" stop-color="#C31162"/>
</linearGradient>
<linearGradient id="paint3_linear" x1="17.1933" y1="-1.6737" x2="34.1565" y2="13.5744" gradientUnits="userSpaceOnUse">
<stop stop-color="#32A071"/>
<stop offset="0.07" stop-color="#2DA771"/>
<stop offset="0.48" stop-color="#15CF74"/>
<stop offset="0.8" stop-color="#06E775"/>
<stop offset="1" stop-color="#00F076"/>
</linearGradient>
</defs>
</svg>
