<svg width="119" height="40" viewBox="0 0 119 40" fill="none" xmlns="http://www.w3.org/2000/svg">
<path d="M50.176 8.944C52.672 8.944 53.92 10.1067 53.92 12.432C53.92 13.5947 53.5733 14.48 52.88 15.088C52.1973 15.696 51.2533 16 50.048 16H45.12V4.8H47.84H53.056V7.392H47.84V8.944H50.176ZM49.936 13.408C50.7573 13.408 51.168 13.072 51.168 12.4C51.168 12.0373 51.0827 11.7867 50.912 11.648C50.752 11.5093 50.4693 11.44 50.064 11.44H47.84V13.408H49.936ZM62.2284 4.8H65.3164V16H62.5964V11.312L62.8204 8.944L58.6124 16H55.5244V4.8H58.2444V9.488L58.0364 11.856L62.2284 4.8ZM74.3274 10.144C75.3834 10.624 75.9114 11.4827 75.9114 12.72C75.9114 13.808 75.522 14.6613 74.7434 15.28C73.9754 15.8987 72.9194 16.208 71.5754 16.208C70.242 16.208 69.1487 15.8827 68.2954 15.232C67.442 14.5707 66.9834 13.6213 66.9194 12.384H69.6714C69.7354 12.832 69.9114 13.152 70.1994 13.344C70.498 13.5253 70.9354 13.616 71.5114 13.616C72.1194 13.616 72.546 13.52 72.7914 13.328C73.0367 13.1253 73.1594 12.832 73.1594 12.448C73.1594 12.1173 73.0474 11.8827 72.8234 11.744C72.61 11.5947 72.2207 11.52 71.6554 11.52H70.1034V9.152H71.3994C71.8687 9.152 72.226 9.09333 72.4714 8.976C72.7167 8.848 72.8394 8.61867 72.8394 8.288C72.8394 7.552 72.3327 7.184 71.3194 7.184C70.8394 7.184 70.4767 7.26933 70.2314 7.44C69.986 7.6 69.826 7.888 69.7514 8.304H66.9994C67.074 7.12 67.5114 6.208 68.3114 5.568C69.122 4.91733 70.1514 4.592 71.3994 4.592C72.658 4.592 73.6714 4.90667 74.4394 5.536C75.2074 6.15467 75.5914 6.94933 75.5914 7.92C75.5914 8.38933 75.474 8.82133 75.2394 9.216C75.0154 9.61067 74.7114 9.92 74.3274 10.144ZM84.6128 4.8H87.3328V16H84.6128V11.584H80.3088V16H77.5888V4.8H80.3088V8.992H84.6128V4.8ZM97.2851 7.392H92.2931V9.056H96.8371V11.648H92.2931V13.408H97.2851V16H89.5731V4.8H97.2851V7.392ZM104.372 16.208C102.697 16.208 101.31 15.6533 100.212 14.544C99.1131 13.4347 98.5638 12.0533 98.5638 10.4C98.5638 8.74667 99.1131 7.36533 100.212 6.256C101.31 5.14667 102.697 4.592 104.372 4.592C105.726 4.592 106.894 4.976 107.876 5.744C108.868 6.512 109.518 7.51467 109.828 8.752H106.916C106.692 8.26133 106.356 7.87733 105.908 7.6C105.47 7.32267 104.958 7.184 104.372 7.184C103.454 7.184 102.713 7.48267 102.148 8.08C101.593 8.67733 101.316 9.45067 101.316 10.4C101.316 11.3493 101.593 12.1227 102.148 12.72C102.713 13.3173 103.454 13.616 104.372 13.616C104.958 13.616 105.47 13.4773 105.908 13.2C106.356 12.9227 106.692 12.5387 106.916 12.048H109.828C109.518 13.2853 108.868 14.288 107.876 15.056C106.894 15.824 105.726 16.208 104.372 16.208ZM117.015 9.984V12.576H111.511V9.984H117.015ZM56.448 23.8H59.168V32.872V35H45.12V32.408V23.8H47.84V32.408H50.784V23.8H53.504V32.408H56.448V23.8ZM71.2573 35H67.8653L64.1213 29.928V35H61.4013V23.8H64.1213V28.568L67.6253 23.8H70.9693L66.9373 29.208L71.2573 35ZM72.8513 25.272C73.9819 24.152 75.3739 23.592 77.0273 23.592C78.6806 23.592 80.0673 24.152 81.1873 25.272C82.3179 26.3813 82.8833 27.7573 82.8833 29.4C82.8833 31.0427 82.3179 32.424 81.1873 33.544C80.0673 34.6533 78.6806 35.208 77.0273 35.208C75.3739 35.208 73.9819 34.6533 72.8513 33.544C71.7313 32.424 71.1713 31.0427 71.1713 29.4C71.1713 27.7573 71.7313 26.3813 72.8513 25.272ZM79.2513 27.096C78.6646 26.488 77.9233 26.184 77.0273 26.184C76.1313 26.184 75.3899 26.488 74.8033 27.096C74.2166 27.6933 73.9233 28.4613 73.9233 29.4C73.9233 30.3387 74.2166 31.112 74.8033 31.72C75.3899 32.3173 76.1313 32.616 77.0273 32.616C77.9233 32.616 78.6646 32.3173 79.2513 31.72C79.8379 31.112 80.1313 30.3387 80.1313 29.4C80.1313 28.4613 79.8379 27.6933 79.2513 27.096ZM86.6751 23.8H94.1631V35H91.4431V26.392H88.9791L88.1631 31.544C87.7685 33.9867 86.6591 35.208 84.8351 35.208C84.4938 35.208 84.0831 35.16 83.6031 35.064V32.616C83.9231 32.6587 84.1418 32.68 84.2591 32.68C84.6325 32.68 84.9098 32.584 85.0911 32.392C85.2725 32.1893 85.4058 31.816 85.4911 31.272L86.6751 23.8ZM104.353 35L103.553 32.68H99.3613L98.5613 35H95.6813L99.7453 23.8H103.169L107.233 35H104.353ZM100.257 30.088H102.657L101.457 26.6L100.257 30.088Z" fill="white"/>
<path fill-rule="evenodd" clip-rule="evenodd" d="M17 39C26.3888 39 34 31.3888 34 22C34 12.6112 26.3888 5 17 5C7.61116 5 0 12.6112 0 22C0 31.3888 7.61116 39 17 39ZM17 30C21.4183 30 25 26.4183 25 22C25 17.5817 21.4183 14 17 14C12.5817 14 9 17.5817 9 22C9 26.4183 12.5817 30 17 30Z" fill="#ECF5FF"/>
<path d="M9 0H0V11.4592C2.13008 8.03109 5.26816 5.29468 9 3.66418V0Z" fill="#ECF5FF"/>
</svg>
