<svg width="27" height="27" viewBox="0 0 27 27" fill="none" xmlns="http://www.w3.org/2000/svg">
<path d="M6.75 0C5.82187 0 5.0625 0.759375 5.0625 1.6875V25.3125C5.0625 26.2406 5.82187 27 6.75 27H23.625C24.5531 27 25.3125 26.2406 25.3125 25.3125V6.75L18.5625 0H6.75Z" fill="#E2E5E7"/>
<path d="M20.25 6.75H25.3125L18.5625 0V5.0625C18.5625 5.99062 19.3219 6.75 20.25 6.75Z" fill="#B0B7BD"/>
<path d="M25.3125 11.8125L20.25 6.75H25.3125V11.8125Z" fill="#CAD1D8"/>
<path d="M21.9375 21.9375C21.9375 22.4016 21.5578 22.7812 21.0938 22.7812H2.53125C2.06719 22.7812 1.6875 22.4016 1.6875 21.9375V13.5C1.6875 13.0359 2.06719 12.6562 2.53125 12.6562H21.0938C21.5578 12.6562 21.9375 13.0359 21.9375 13.5V21.9375Z" fill="#F15642"/>
<path d="M5.36487 15.9872C5.36487 15.7645 5.54037 15.5215 5.82302 15.5215H7.38143C8.25893 15.5215 9.04868 16.1087 9.04868 17.2343C9.04868 18.3008 8.25893 18.8948 7.38143 18.8948H6.25502V19.7858C6.25502 20.0828 6.06602 20.2507 5.82302 20.2507C5.60027 20.2507 5.36487 20.0828 5.36487 19.7858V15.9872ZM6.25502 16.3711V18.0519H7.38143C7.83368 18.0519 8.19143 17.6528 8.19143 17.2343C8.19143 16.7626 7.83368 16.3711 7.38143 16.3711H6.25502Z" fill="white"/>
<path d="M10.3698 20.2505C10.1471 20.2505 9.90405 20.129 9.90405 19.8328V16.0005C9.90405 15.7584 10.1471 15.582 10.3698 15.582H11.9147C14.9978 15.582 14.9303 20.2505 11.9755 20.2505H10.3698ZM10.7951 16.4055V19.4278H11.9147C13.7364 19.4278 13.8174 16.4055 11.9147 16.4055H10.7951Z" fill="white"/>
<path d="M16.0231 16.4604V17.5328H17.7435C17.9865 17.5328 18.2295 17.7758 18.2295 18.0112C18.2295 18.2339 17.9865 18.4162 17.7435 18.4162H16.0231V19.8328C16.0231 20.0691 15.8552 20.2505 15.6189 20.2505C15.3219 20.2505 15.1405 20.0691 15.1405 19.8328V16.0005C15.1405 15.7584 15.3228 15.582 15.6189 15.582H17.9873C18.2843 15.582 18.4598 15.7584 18.4598 16.0005C18.4598 16.2165 18.2843 16.4595 17.9873 16.4595H16.0231V16.4604Z" fill="white"/>
<path d="M21.0938 22.7812H5.0625V23.625H21.0938C21.5578 23.625 21.9375 23.2453 21.9375 22.7812V21.9375C21.9375 22.4016 21.5578 22.7812 21.0938 22.7812Z" fill="#CAD1D8"/>
</svg>
