<svg width="27" height="27" viewBox="0 0 27 27" fill="none" xmlns="http://www.w3.org/2000/svg">
<path d="M26.1562 4.21875H14.3438C13.878 4.21875 13.5 4.59675 13.5 5.0625V21.9375C13.5 22.4033 13.878 22.7813 14.3438 22.7813H26.1562C26.622 22.7813 27 22.4033 27 21.9375V5.0625C27 4.59675 26.622 4.21875 26.1562 4.21875Z" fill="#ECEFF1"/>
<path d="M22.7812 19.4062H14.3438C13.878 19.4062 13.5 19.0282 13.5 18.5625C13.5 18.0968 13.878 17.7188 14.3438 17.7188H22.7812C23.247 17.7188 23.625 18.0968 23.625 18.5625C23.625 19.0282 23.247 19.4062 22.7812 19.4062Z" fill="#F57C00"/>
<path d="M18.5625 7.59375C16.2321 7.59375 14.3438 9.48206 14.3438 11.8125C14.3438 14.1429 16.2321 16.0312 18.5625 16.0312C20.8929 16.0312 22.7812 14.1429 22.7812 11.8125H18.5625V7.59375Z" fill="#F57C00"/>
<path d="M20.25 5.90625V10.125H24.4688C24.4688 7.79456 22.5804 5.90625 20.25 5.90625Z" fill="#F57C00"/>
<path d="M14.8821 1.03895C14.6897 0.878637 14.4315 0.809449 14.1885 0.860074L0.6885 3.39132C0.288562 3.46557 0 3.8132 0 4.21989V22.7824C0 23.1874 0.288562 23.5367 0.6885 23.6109L14.1885 26.1422C14.2391 26.1523 14.2914 26.1574 14.3438 26.1574C14.5395 26.1574 14.7302 26.0899 14.8821 25.9633C15.0761 25.803 15.1875 25.5634 15.1875 25.3136V1.68864C15.1875 1.4372 15.0761 1.19926 14.8821 1.03895Z" fill="#EF6C00"/>
<path d="M5.90625 19.4062C5.4405 19.4062 5.0625 19.0282 5.0625 18.5625V10.125C5.0625 9.65925 5.4405 9.28125 5.90625 9.28125H8.4375C10.2988 9.28125 11.8125 10.7949 11.8125 12.6562C11.8125 14.5176 10.2988 16.0312 8.4375 16.0312H6.75V18.5625C6.75 19.0282 6.372 19.4062 5.90625 19.4062ZM6.75 14.3437H8.4375C9.36731 14.3437 10.125 13.5861 10.125 12.6562C10.125 11.7264 9.36731 10.9687 8.4375 10.9687H6.75V14.3437Z" fill="#FAFAFA"/>
</svg>
