<svg width="20" height="20" viewBox="0 0 20 20" fill="none" xmlns="http://www.w3.org/2000/svg">
<g clip-path="url(#clip0)">
<path d="M19.4139 0.587891H0.586074C0.262405 0.587891 0 0.850295 0 1.17396V15.2845C0 15.6081 0.262405 15.8705 0.586074 15.8705H12.0665V18.8251C12.0665 19.2599 12.525 19.5441 12.9146 19.3494L14.4178 18.5981L15.9211 19.3494C16.3101 19.5437 16.7692 19.2606 16.7692 18.8252V15.8706H19.4139C19.7376 15.8706 20 15.6082 20 15.2845V1.17396C20 0.850295 19.7376 0.587891 19.4139 0.587891ZM16.4848 13.4982C15.2004 14.7826 15.3795 14.6036 15.2741 14.7089H13.5619C11.7755 12.9226 13.4229 14.5699 12.3512 13.4982V11.786L13.5619 10.5753H15.2741L16.4848 11.786V13.4982ZM14.6799 17.4186C14.5149 17.3362 14.3208 17.3362 14.1558 17.4186L13.2386 17.877V15.8749C13.3065 15.8843 15.5203 15.8855 15.597 15.8749V17.877L14.6799 17.4186ZM18.8279 14.6984H16.9424L17.4854 14.1555C17.5953 14.0456 17.657 13.8965 17.657 13.741V11.5433C17.657 11.3879 17.5953 11.2388 17.4854 11.1289L15.9313 9.57482C15.8214 9.46491 15.6724 9.40318 15.5169 9.40318H13.3192C13.1637 9.40318 13.0147 9.46492 12.9048 9.57486L11.3508 11.1289C11.2409 11.2388 11.1791 11.3879 11.1791 11.5433V13.741C11.1791 13.8965 11.2409 14.0455 11.3508 14.1554L11.8937 14.6984H1.17215V1.76004H18.8279V14.6984Z" fill="#FFD337"/>
<path d="M2.93959 6.46703C3.26326 6.46703 3.52566 6.20463 3.52566 5.88096V4.11355H5.29307C5.61673 4.11355 5.87914 3.85115 5.87914 3.52748C5.87914 3.20381 5.61673 2.94141 5.29307 2.94141H2.93959C2.61592 2.94141 2.35352 3.20381 2.35352 3.52748V5.88096C2.35352 6.20463 2.61592 6.46703 2.93959 6.46703Z" fill="#FFD337"/>
<path d="M2.93959 13.5168H5.29307C5.61673 13.5168 5.87914 13.2544 5.87914 12.9308C5.87914 12.6071 5.61673 12.3447 5.29307 12.3447H3.52566V10.5773C3.52566 10.2536 3.26326 9.99121 2.93959 9.99121C2.61592 9.99121 2.35352 10.2536 2.35352 10.5773V12.9308C2.35352 13.2544 2.61592 13.5168 2.93959 13.5168Z" fill="#FFD337"/>
<path d="M14.7072 4.11355H16.4746V5.88095C16.4746 6.20462 16.737 6.46703 17.0606 6.46703C17.3843 6.46703 17.6467 6.20462 17.6467 5.88095V3.52748C17.6467 3.20381 17.3843 2.94141 17.0606 2.94141H14.7072C14.3835 2.94141 14.1211 3.20381 14.1211 3.52748C14.1211 3.85115 14.3835 4.11355 14.7072 4.11355Z" fill="#FFD337"/>
<path d="M11.7652 7.6377H5.2931C4.96944 7.6377 4.70703 7.9001 4.70703 8.22377C4.70703 8.54744 4.96944 8.80984 5.2931 8.80984H11.7652C12.0889 8.80984 12.3513 8.54744 12.3513 8.22377C12.3513 7.9001 12.0889 7.6377 11.7652 7.6377Z" fill="#FFD337"/>
<path d="M4.70703 5.881C4.70703 6.20466 4.96944 6.46707 5.29311 6.46707H12.942C13.2656 6.46707 13.528 6.20466 13.528 5.881C13.528 5.55733 13.2656 5.29492 12.942 5.29492H5.29311C4.96944 5.29492 4.70703 5.55729 4.70703 5.881Z" fill="#FFD337"/>
<path d="M9.41172 9.99121H5.29311C4.96944 9.99121 4.70703 10.2536 4.70703 10.5773C4.70703 10.901 4.96944 11.1634 5.29311 11.1634H9.41172C9.73539 11.1634 9.99779 10.901 9.99779 10.5773C9.99779 10.2536 9.73539 9.99121 9.41172 9.99121Z" fill="#FFD337"/>
<path d="M14.7072 12.0615H14.1188C13.7951 12.0615 13.5327 12.3239 13.5327 12.6476C13.5327 12.9713 13.7951 13.2337 14.1188 13.2337H14.7072C15.0308 13.2337 15.2932 12.9713 15.2932 12.6476C15.2932 12.3239 15.0308 12.0615 14.7072 12.0615Z" fill="#FFD337"/>
</g>
<defs>
<clipPath id="clip0">
<rect width="20" height="20" fill="white"/>
</clipPath>
</defs>
</svg>
