<svg width="20" height="20" viewBox="0 0 20 20" fill="none" xmlns="http://www.w3.org/2000/svg">
<path d="M16.3533 4.6334C14.7952 3.07207 12.7654 2.15543 10.5859 2.01574V1.17188H11.4453C11.7689 1.17188 12.0312 0.909531 12.0312 0.585938C12.0312 0.262344 11.7689 0 11.4453 0H8.55465C8.23105 0 7.96871 0.262344 7.96871 0.585938C7.96871 0.909531 8.23105 1.17188 8.55465 1.17188H9.41402V2.01574C7.91961 2.11152 6.49574 2.57266 5.24594 3.35652L4.68934 2.79879C4.41844 2.52734 4.05809 2.37789 3.67461 2.37789C3.29113 2.37789 2.93078 2.52738 2.65992 2.79879L1.8134 3.64715C1.25617 4.20547 1.25617 5.11398 1.8134 5.67234L2.37379 6.23391C1.4893 7.64918 1.01562 9.28715 1.01562 10.9982C1.01562 13.4024 1.95 15.6629 3.64664 17.363C5.34359 19.0635 7.59992 20 9.99996 20C12.4 20 14.6563 19.0635 16.3533 17.363C18.0499 15.6629 18.9843 13.4024 18.9843 10.9982C18.9843 8.59398 18.0499 6.33355 16.3533 4.6334ZM2.64289 4.47496L3.48945 3.62664C3.55617 3.5598 3.6341 3.5498 3.67465 3.5498C3.71519 3.5498 3.79316 3.55977 3.85988 3.62664L4.28449 4.05211C4.0643 4.23465 3.85133 4.42836 3.64668 4.63344C3.44262 4.83793 3.24984 5.0507 3.06816 5.2707L2.64289 4.84457C2.54117 4.74266 2.54117 4.57684 2.64289 4.47496ZM9.99996 18.8281C5.69215 18.8281 2.1875 15.3156 2.1875 10.9982C2.1875 6.68078 5.69215 3.16828 9.99996 3.16828C14.3078 3.16828 17.8124 6.68074 17.8124 10.9982C17.8124 15.3157 14.3078 18.8281 9.99996 18.8281Z" fill="#FFD337"/>
<path d="M10 4.2666C6.29527 4.2666 3.28125 7.28637 3.28125 10.9982C3.28125 14.71 6.29527 17.7297 10 17.7297C13.7048 17.7297 16.7188 14.71 16.7188 10.9982C16.7188 7.28637 13.7048 4.2666 10 4.2666ZM10.586 16.5268V15.842C10.586 15.5184 10.3236 15.256 10 15.256C9.67645 15.256 9.4141 15.5184 9.4141 15.842V16.5268C6.82207 16.2528 4.75668 14.1823 4.48391 11.5841H5.15629C5.47988 11.5841 5.74223 11.3218 5.74223 10.9982C5.74223 10.6746 5.47988 10.4122 5.15629 10.4122H4.48395C4.75668 7.81406 6.82207 5.74352 9.4141 5.46949V6.15438C9.4141 6.47797 9.67645 6.74031 10 6.74031C10.3236 6.74031 10.586 6.47797 10.586 6.15438V5.46949C13.178 5.74352 15.2434 7.81406 15.5162 10.4122H14.8438C14.5202 10.4122 14.2579 10.6746 14.2579 10.9982C14.2579 11.3218 14.5202 11.5841 14.8438 11.5841H15.5161C15.2434 14.1823 13.178 16.2528 10.586 16.5268Z" fill="#FFD337"/>
<path d="M11.4453 10.6598H10.6187V8.29004C10.6187 7.96645 10.3563 7.7041 10.0327 7.7041C9.70912 7.7041 9.44678 7.96645 9.44678 8.29004V11.2458C9.44678 11.5694 9.70912 11.8317 10.0327 11.8317H11.4453C11.7689 11.8317 12.0312 11.5694 12.0312 11.2458C12.0312 10.9222 11.7689 10.6598 11.4453 10.6598Z" fill="#FFD337"/>
</svg>
