<svg width="20" height="20" viewBox="0 0 20 20" fill="none" xmlns="http://www.w3.org/2000/svg">
<path d="M15.8984 1.60156H4.10156C1.8399 1.60156 0 3.44147 0 5.70312V12.3026C0 14.5642 1.8399 16.4041 4.10156 16.4041H4.71024L6.13678 18.214C6.24802 18.3549 6.41754 18.4372 6.59698 18.4372C6.77643 18.4372 6.94611 18.3549 7.05719 18.214L8.48373 16.4041H15.8984C18.1601 16.4041 20 14.5642 20 12.3026V5.70312C20 3.44147 18.1601 1.60156 15.8984 1.60156V1.60156ZM11.0251 10.6146V15.2322H8.97491V10.6146C8.97491 10.291 8.71262 10.0287 8.38898 10.0287H1.17188V7.97852H8.38898C8.71262 7.97852 8.97491 7.71622 8.97491 7.39258V2.77344H11.0251V7.39258C11.0251 7.71622 11.2874 7.97852 11.611 7.97852H18.8281V10.0287H11.611C11.2874 10.0287 11.0251 10.291 11.0251 10.6146ZM12.197 2.77344H15.4016L12.197 5.97809V2.77344ZM7.80304 5.97809L4.59839 2.77344H7.80304V5.97809ZM12.197 12.0293L15.3999 15.2322H12.197V12.0293ZM18.8281 5.70312V6.80664H13.0255L16.8869 2.9454C18.0173 3.3519 18.8281 4.43436 18.8281 5.70312ZM3.1131 2.9454L6.97449 6.80664H1.17188V5.70312C1.17188 4.43436 1.98273 3.3519 3.1131 2.9454ZM1.17188 12.3026V11.2006H6.97449L3.11432 15.0607C1.98318 14.6545 1.17188 13.5718 1.17188 12.3026ZM7.73941 15.4555L6.59698 16.9048L5.45471 15.4555C5.34348 15.3145 5.17395 15.2322 4.99451 15.2322H4.60007L7.80304 12.0293V15.388C7.78046 15.4088 7.75864 15.4309 7.73941 15.4555ZM16.8857 15.0607L13.0255 11.2006H18.8281V12.3026C18.8281 13.5718 18.0168 14.6545 16.8857 15.0607Z" fill="#FFD337"/>
</svg>
