<svg width="52" height="52" viewBox="0 0 52 52" fill="none" xmlns="http://www.w3.org/2000/svg">
<g clip-path="url(#clip0)">
<path d="M25.6292 25.0485C29.0704 25.0485 32.0503 23.8143 34.485 21.3792C36.9197 18.9445 38.1539 15.9655 38.1539 12.5239C38.1539 9.08346 36.9197 6.10404 34.4846 3.66853C32.0495 1.23422 29.07 0 25.6292 0C22.1876 0 19.2086 1.23422 16.7738 3.66893C14.3391 6.10364 13.1045 9.08306 13.1045 12.5239C13.1045 15.9655 14.3391 18.9449 16.7742 21.3796C19.2094 23.8139 22.1888 25.0485 25.6292 25.0485Z" fill="white"/>
<path d="M47.5443 39.9845C47.4741 38.9713 47.3321 37.866 47.123 36.6988C46.912 35.5229 46.6402 34.4113 46.3149 33.3953C45.9789 32.3452 45.5218 31.3081 44.9569 30.3143C44.3705 29.2828 43.6818 28.3846 42.909 27.6455C42.1008 26.8723 41.1114 26.2506 39.9672 25.7972C38.827 25.3461 37.5634 25.1176 36.2118 25.1176C35.681 25.1176 35.1676 25.3354 34.1762 25.9809C33.566 26.3788 32.8523 26.839 32.0557 27.348C31.3745 27.782 30.4517 28.1886 29.3119 28.5568C28.1999 28.9166 27.0708 29.0991 25.9564 29.0991C24.8419 29.0991 23.7133 28.9166 22.6 28.5568C21.4614 28.189 20.5386 27.7824 19.8582 27.3484C19.0692 26.8441 18.355 26.3839 17.7357 25.9805C16.7455 25.335 16.2318 25.1172 15.7009 25.1172C14.3489 25.1172 13.0857 25.3461 11.9459 25.7976C10.8025 26.2502 9.81268 26.8719 9.00375 27.6459C8.23132 28.3854 7.54221 29.2832 6.95663 30.3143C6.39209 31.3081 5.93506 32.3448 5.59863 33.3957C5.27371 34.4117 5.00195 35.5229 4.79089 36.6988C4.58182 37.8644 4.43979 38.9701 4.36957 39.9857C4.30054 40.9807 4.26562 42.0134 4.26562 43.0564C4.26562 45.7708 5.12851 47.9683 6.83008 49.5889C8.51062 51.1881 10.7343 51.9994 13.4384 51.9994H38.4767C41.1808 51.9994 43.4037 51.1885 45.0846 49.5889C46.7866 47.9695 47.6495 45.7716 47.6495 43.056C47.6491 42.0082 47.6138 40.9748 47.5443 39.9845Z" fill="white"/>
</g>
<defs>
<clipPath id="clip0">
<rect width="52" height="52" fill="white"/>
</clipPath>
</defs>
</svg>
