<svg width="27" height="27" viewBox="0 0 27 27" fill="none" xmlns="http://www.w3.org/2000/svg">
<path d="M26.1562 22.7812H14.3438C13.878 22.7812 13.5 22.4049 13.5 21.9375C13.5 21.4701 13.5 5.52825 13.5 5.0625C13.5 4.59675 13.878 4.21875 14.3438 4.21875H26.1562C26.622 4.21875 27 4.59675 27 5.0625V21.9375C27 22.4049 26.622 22.7812 26.1562 22.7812Z" fill="#ECEFF1"/>
<path d="M22.7812 9.28125H14.3438C13.878 9.28125 13.5 8.90494 13.5 8.4375C13.5 7.97006 13.878 7.59375 14.3438 7.59375H22.7812C23.247 7.59375 23.625 7.97175 23.625 8.4375C23.625 8.90325 23.247 9.28125 22.7812 9.28125Z" fill="#1976D2"/>
<path d="M22.7812 12.6562H14.3438C13.878 12.6562 13.5 12.2799 13.5 11.8125C13.5 11.3451 13.878 10.9688 14.3438 10.9688H22.7812C23.247 10.9688 23.625 11.3468 23.625 11.8125C23.625 12.2782 23.247 12.6562 22.7812 12.6562Z" fill="#1976D2"/>
<path d="M22.7812 16.0312H14.3438C13.878 16.0312 13.5 15.6549 13.5 15.1875C13.5 14.7201 13.878 14.3438 14.3438 14.3438H22.7812C23.247 14.3438 23.625 14.7218 23.625 15.1875C23.625 15.6532 23.247 16.0312 22.7812 16.0312Z" fill="#1976D2"/>
<path d="M22.7812 19.4062H14.3438C13.878 19.4062 13.5 19.0299 13.5 18.5625C13.5 18.0951 13.878 17.7188 14.3438 17.7188H22.7812C23.247 17.7188 23.625 18.0968 23.625 18.5625C23.625 19.0282 23.247 19.4062 22.7812 19.4062Z" fill="#1976D2"/>
<path d="M14.8821 1.03995C14.6897 0.877948 14.4315 0.810448 14.1885 0.859386L0.6885 3.39064C0.29025 3.46489 0 3.8142 0 4.2192V22.7817C0 23.1867 0.288562 23.536 0.6885 23.6103L14.1885 26.1415C14.2408 26.1516 14.2914 26.1567 14.3438 26.1567C14.5395 26.1567 14.7302 26.0892 14.8821 25.9626C15.0761 25.8023 15.1875 25.5644 15.1875 25.3129V1.68795C15.1875 1.43651 15.0761 1.20026 14.8821 1.03995Z" fill="#1565C0"/>
<path d="M10.9632 17.8127C10.9193 18.1991 10.6156 18.5079 10.2291 18.5552C10.1937 18.5603 10.16 18.5619 10.1245 18.5619C9.77689 18.5619 9.45964 18.3459 9.33477 18.0152L7.59327 13.3712L5.85177 18.0152C5.71677 18.3763 5.36239 18.5974 4.97089 18.5569C4.58783 18.5164 4.2807 18.2194 4.2267 17.8363L3.38295 11.9301C3.31714 11.4711 3.63777 11.0425 4.09845 10.9766C4.56083 10.9091 4.98777 11.2314 5.05358 11.6921L5.42989 14.3314L6.80183 10.6712C7.0482 10.0131 8.13495 10.0131 8.38302 10.6712L9.67564 14.1171L10.1296 10.03C10.1819 9.56758 10.6105 9.23514 11.0611 9.28408C11.5251 9.33808 11.8576 9.75489 11.807 10.2173L10.9632 17.8127Z" fill="#FAFAFA"/>
</svg>
